<svg width="0" height="0" class="hidden">
  <symbol xmlns="http://www.w3.org/2000/svg" viewBox="0 0 512 512" id="HTML5_logo">
    <title>HTML5 Logo Badge</title>
    <path fill="#E34F26" d="M71,460 L30,0 481,0 440,460 255,512"></path>
    <path fill="#EF652A" d="M256,472 L405,431 440,37 256,37"></path>
    <path fill="#EBEBEB" d="M256,208 L181,208 176,150 256,150 256,94 255,94 114,94 115,109 129,265 256,265zM256,355 L255,355 192,338 188,293 158,293 132,293 139,382 255,414 256,414z"></path>
    <path fill="#FFF" d="M255,208 L255,265 325,265 318,338 255,355 255,414 371,382 372,372 385,223 387,208 371,208zM255,94 L255,129 255,150 255,150 392,150 392,150 392,150 393,138 396,109 397,94z"></path>
  </symbol>
  <symbol fill="none" xmlns="http://www.w3.org/2000/svg" viewBox="0 0 124 141.53199999999998" id="Javascript_logo">
    <path d="M10.383 126.894L0 0l124 .255-10.979 126.639-50.553 14.638z" fill="#e9ca32"></path>
    <path d="M62.468 129.277V12.085l51.064.17-9.106 104.851z" fill="#ffde25"></path>
    <g fill="#fff">
      <path d="M57 26H43.5v78L33 102V91.5l-12.5-2V113l36.5 9.5zM67.127 26H104.5L102 40.95H81.394v24.533H102L99.5 115l-32.373 7.5V107L89 99.5 90.263 79l-23.136 3.35z"></path>
    </g>
  </symbol>
  <symbol xmlns="http://www.w3.org/2000/svg" fill="none" viewBox="0 0 54 33" id="Tailwind_logo">
    <g clip-path="url(#prefix__clip0)">
      <path fill="#38bdf8" fill-rule="evenodd" d="M27 0c-7.2 0-11.7 3.6-13.5 10.8 2.7-3.6 5.85-4.95 9.45-4.05 2.054.513 3.522 2.004 5.147 3.653C30.744 13.09 33.808 16.2 40.5 16.2c7.2 0 11.7-3.6 13.5-10.8-2.7 3.6-5.85 4.95-9.45 4.05-2.054-.513-3.522-2.004-5.147-3.653C36.756 3.11 33.692 0 27 0zM13.5 16.2C6.3 16.2 1.8 19.8 0 27c2.7-3.6 5.85-4.95 9.45-4.05 2.054.514 3.522 2.004 5.147 3.653C17.244 29.29 20.308 32.4 27 32.4c7.2 0 11.7-3.6 13.5-10.8-2.7 3.6-5.85 4.95-9.45 4.05-2.054-.513-3.522-2.004-5.147-3.653C23.256 19.31 20.192 16.2 13.5 16.2z" clip-rule="evenodd"></path>
    </g>
    <defs>
      <clipPath id="prefix__clip0">
        <path fill="#fff" d="M0 0h54v32.4H0z"></path>
      </clipPath>
    </defs>
  </symbol>
  <symbol version="1.1" xmlns="http://www.w3.org/2000/svg" xmlns:xlink="http://www.w3.org/1999/xlink" preserveAspectRatio="xMidYMid" viewBox="0 0 256 256" id="Bootstrap_logo">
    <g>
      <path d="M0,222.991225 C0,241.223474 14.7785318,256 33.0087747,256 L222.991225,256 C241.223474,256 256,241.221468 256,222.991225 L256,33.0087747 C256,14.7765263 241.221468,0 222.991225,0 L33.0087747,0 C14.7765263,0 0,14.7785318 0,33.0087747 L0,222.991225 Z" fill="#563D7C"></path>
      <path d="M106.157563,113.238095 L106.157563,76.9845938 L138.069328,76.9845938 C141.108559,76.9845938 144.039202,77.2378593 146.861345,77.7443978 C149.683488,78.2509362 152.179961,79.1554557 154.35084,80.4579832 C156.52172,81.7605107 158.258397,83.5695496 159.560924,85.8851541 C160.863452,88.2007585 161.514706,91.1675823 161.514706,94.7857143 C161.514706,101.298352 159.560944,106.001853 155.653361,108.896359 C151.745779,111.790864 146.752832,113.238095 140.67437,113.238095 L106.157563,113.238095 L106.157563,113.238095 Z M72.07493,50.5 L72.07493,205.5 L147.186975,205.5 C154.133788,205.5 160.899594,204.631661 167.484594,202.894958 C174.069594,201.158255 179.93088,198.480877 185.068627,194.862745 C190.206375,191.244613 194.294803,186.577293 197.334034,180.860644 C200.373264,175.143996 201.892857,168.37819 201.892857,160.563025 C201.892857,150.866431 199.541107,142.581033 194.837535,135.706583 C190.133963,128.832132 183.00635,124.020088 173.454482,121.270308 C180.401295,117.941627 185.647508,113.672295 189.193277,108.462185 C192.739047,103.252075 194.511905,96.7395349 194.511905,88.9243697 C194.511905,81.6881057 193.317939,75.6097352 190.929972,70.6890756 C188.542005,65.7684161 185.177193,61.8247114 180.835434,58.8578431 C176.493676,55.8909749 171.283644,53.756309 165.205182,52.4537815 C159.12672,51.151254 152.397096,50.5 145.016106,50.5 L72.07493,50.5 L72.07493,50.5 Z M106.157563,179.015406 L106.157563,136.466387 L143.279412,136.466387 C150.660401,136.466387 156.594049,138.166883 161.080532,141.567927 C165.567016,144.968971 167.810224,150.649353 167.810224,158.609244 C167.810224,162.661552 167.122789,165.990183 165.747899,168.595238 C164.373009,171.200293 162.527789,173.262597 160.212185,174.782213 C157.89658,176.301828 155.219203,177.387252 152.179972,178.038515 C149.140741,178.689779 145.956833,179.015406 142.628151,179.015406 L106.157563,179.015406 L106.157563,179.015406 Z" fill="#FFFFFF"></path>
    </g>
  </symbol>
  <symbol xmlns="http://www.w3.org/2000/svg" xml:space="preserve" viewBox="0 0 97 97" id="Git_logo">
    <path fill="#F05133" d="M92.71 44.408 52.591 4.291c-2.31-2.311-6.057-2.311-8.369 0l-8.33 8.332L46.459 23.19c2.456-.83 5.272-.273 7.229 1.685 1.969 1.97 2.521 4.81 1.67 7.275l10.186 10.185c2.465-.85 5.307-.3 7.275 1.671 2.75 2.75 2.75 7.206 0 9.958-2.752 2.751-7.208 2.751-9.961 0-2.068-2.07-2.58-5.11-1.531-7.658l-9.5-9.499v24.997c.67.332 1.303.774 1.861 1.332 2.75 2.75 2.75 7.206 0 9.959-2.75 2.749-7.209 2.749-9.957 0-2.75-2.754-2.75-7.21 0-9.959.68-.679 1.467-1.193 2.307-1.537v-25.23c-.84-.344-1.625-.853-2.307-1.537-2.083-2.082-2.584-5.14-1.516-7.698L31.798 16.715 4.288 44.222c-2.311 2.313-2.311 6.06 0 8.371l40.121 40.118c2.31 2.311 6.056 2.311 8.369 0L92.71 52.779c2.311-2.311 2.311-6.06 0-8.371z"></path>
  </symbol>
  <symbol xmlns="http://www.w3.org/2000/svg" viewBox="0 0 512 512" id="CSS3_logo">
    <path fill="#264de4" d="M71.357 460.819L30.272 0h451.456l-41.129 460.746L255.724 512z"></path>
    <path fill="#2965f1" d="M405.388 431.408l35.148-393.73H256v435.146z"></path>
    <path fill="#ebebeb" d="M124.46 208.59l5.065 56.517H256V208.59zM119.419 150.715H256V94.197H114.281zM256 355.372l-.248.066-62.944-16.996-4.023-45.076h-56.736l7.919 88.741 115.772 32.14.26-.073z"></path>
    <path fill="#fff" d="M255.805 208.59v56.517H325.4l-6.56 73.299-63.035 17.013v58.8l115.864-32.112.85-9.549 13.28-148.792 1.38-15.176 10.203-114.393H255.805v56.518h79.639L330.3 208.59z"></path>
  </symbol>
  <symbol fill="none" xmlns="http://www.w3.org/2000/svg" viewBox="0 0 32 32" id="Vue_logo">
    <path d="M2 4L16 28L30 4H24.5L16 18.5L7.5 4H2Z" fill="#41B883"></path>
    <path d="M7.5 4L16 18.5L24.5 4H19.5L16.0653 10.0126L12.5 4H7.5Z" fill="#35495E"></path>
  </symbol>
  <symbol version="1.1" xmlns="http://www.w3.org/2000/svg" xmlns:xlink="http://www.w3.org/1999/xlink" viewBox="0 -32.5 256 256" id="Nuxt_logo">
    <g stroke="none" stroke-width="1" fill="none" fill-rule="evenodd">
      <g transform="translate(0.000173, 0.000000)">
        <path d="M77.8911791,183.614864 C77.7012551,183.279 77.5321086,182.931804 77.384692,182.575232 C76.3622173,180.209762 76.0473968,177.598605 76.478347,175.057899 L15.9931374,175.057899 L105.88125,16.874014 L135.390782,68.7489446 L143.947746,53.6076496 L118.223538,8.29039232 C117.503793,6.98418906 113.158668,0 105.667993,0 C102.282527,0 97.4309144,1.46614656 93.485647,8.39702119 L2.42461749,168.500225 C1.65155838,169.8864 -2.10710822,177.163819 1.62490116,183.614864 C3.33096269,186.547156 6.9563432,190.039251 14.9535063,190.039251 L91.2197845,190.039251 C83.2759358,190.039251 79.5972406,186.600471 77.8911791,183.614864 Z" fill="#01C58E"></path>
        <path d="M253.242307,168.500225 L178.415518,36.6803211 C177.64246,35.2941462 173.323992,28.2832999 165.806658,28.2832999 C162.421193,28.2832999 157.56958,29.7227893 153.624314,36.6536639 L143.947746,53.6076496 L152.558025,68.7489446 L165.88663,45.157314 L239.913702,175.057899 L211.763688,175.057899 C212.123898,177.20534 211.921853,179.409465 211.17723,181.45563 C211.020409,181.907379 210.824167,182.344463 210.590771,182.761832 L210.350856,183.241662 C206.565533,189.692707 198.381769,190.039251 196.782337,190.039251 L240.820047,190.039251 C242.446137,190.039251 250.603243,189.692707 254.388568,183.241662 C256.067972,180.309369 257.267546,175.377785 253.242307,168.500225 Z" fill="#108775"></path>
        <path d="M210.350856,183.241662 L210.590771,182.761832 C210.824167,182.344463 211.020409,181.907379 211.17723,181.45563 C211.921853,179.409465 212.123898,177.20534 211.763688,175.057899 C211.348809,172.741872 210.517913,170.520128 209.311226,168.500225 L152.611339,68.7489446 L143.947746,53.6076496 L135.337467,68.7489446 L78.6642383,168.500225 C77.5638612,170.544123 76.8243845,172.762554 76.478347,175.057899 C76.0222311,177.590906 76.3092441,180.201797 77.3047209,182.575232 C77.4521368,182.931805 77.6212834,183.279 77.8112079,183.614864 C79.5172694,186.547156 83.1426494,190.039251 91.1398127,190.039251 L196.702365,190.039251 C198.381769,190.039251 206.565533,189.692707 210.350856,183.241662 L210.350856,183.241662 Z M143.947746,83.89024 L195.769362,175.057899 L92.1527868,175.057899 L143.947746,83.89024 Z" fill="#2F495E"></path>
      </g>
    </g>
  </symbol>
  <symbol xmlns="http://www.w3.org/2000/svg" viewBox="0 0 122.52 122.523" id="WordPress_logo">
    <g fill="#21759b">
      <path d="m8.708 61.26c0 20.802 12.089 38.779 29.619 47.298l-25.069-68.686c-2.916 6.536-4.55 13.769-4.55 21.388z"></path>
      <path d="m96.74 58.608c0-6.495-2.333-10.993-4.334-14.494-2.664-4.329-5.161-7.995-5.161-12.324 0-4.831 3.664-9.328 8.825-9.328.233 0 .454.029.681.042-9.35-8.566-21.807-13.796-35.489-13.796-18.36 0-34.513 9.42-43.91 23.688 1.233.037 2.395.063 3.382.063 5.497 0 14.006-.667 14.006-.667 2.833-.167 3.167 3.994.337 4.329 0 0-2.847.335-6.015.501l19.138 56.925 11.501-34.493-8.188-22.434c-2.83-.166-5.511-.501-5.511-.501-2.832-.166-2.5-4.496.332-4.329 0 0 8.679.667 13.843.667 5.496 0 14.006-.667 14.006-.667 2.835-.167 3.168 3.994.337 4.329 0 0-2.853.335-6.015.501l18.992 56.494 5.242-17.517c2.272-7.269 4.001-12.49 4.001-16.989z"></path>
      <path d="m62.184 65.857-15.768 45.819c4.708 1.384 9.687 2.141 14.846 2.141 6.12 0 11.989-1.058 17.452-2.979-.141-.225-.269-.464-.374-.724z"></path>
      <path d="m107.376 36.046c.226 1.674.354 3.471.354 5.404 0 5.333-.996 11.328-3.996 18.824l-16.053 46.413c15.624-9.111 26.133-26.038 26.133-45.426.001-9.137-2.333-17.729-6.438-25.215z"></path>
      <path d="m61.262 0c-33.779 0-61.262 27.481-61.262 61.26 0 33.783 27.483 61.263 61.262 61.263 33.778 0 61.265-27.48 61.265-61.263-.001-33.779-27.487-61.26-61.265-61.26zm0 119.715c-32.23 0-58.453-26.223-58.453-58.455 0-32.23 26.222-58.451 58.453-58.451 32.229 0 58.45 26.221 58.45 58.451 0 32.232-26.221 58.455-58.45 58.455z"></path>
    </g>
  </symbol>
  <symbol xmlns="http://www.w3.org/2000/svg" viewBox="-11.5 -10.23174 23 20.46348" id="React_logo">
    <title>React Logo</title>
    <circle cx="0" cy="0" r="2.05" fill="#61dafb"></circle>
    <g stroke="#61dafb" stroke-width="1" fill="none">
      <ellipse rx="11" ry="4.2"></ellipse>
      <ellipse rx="11" ry="4.2" transform="rotate(60)"></ellipse>
      <ellipse rx="11" ry="4.2" transform="rotate(120)"></ellipse>
    </g>
  </symbol>
</svg>